<svg version="1.1" id="Layer_1" xmlns="http://www.w3.org/2000/svg" xmlns:xlink="http://www.w3.org/1999/xlink" x="0px" y="0px"
	 width="100%" viewBox="0 0 500 500" enable-background="new 0 0 500 500" xml:space="preserve">
<path fill="#213F66" opacity="1.000000" stroke="none" 
	d="
M241.000000,501.000000 
	C160.666687,501.000000 80.833374,501.000000 1.000043,501.000000 
	C1.000029,334.333405 1.000029,167.666779 1.000014,1.000132 
	C167.666565,1.000088 334.333130,1.000088 500.999756,1.000044 
	C500.999847,167.666519 500.999847,334.333038 500.999939,500.999786 
	C414.500000,501.000000 328.000000,501.000000 241.000000,501.000000 
M151.011383,382.109924 
	C151.011383,382.109924 151.135376,381.886169 151.135193,381.082703 
	C150.954956,379.117767 150.774704,377.152832 150.594467,375.187866 
	C149.956482,375.343323 149.318512,375.498749 148.680527,375.654175 
	C149.433212,377.794891 150.185898,379.935608 151.011383,382.109924 
M267.335510,266.050812 
	C261.407745,265.712189 255.481735,265.337402 249.551590,265.047394 
	C245.474792,264.847992 243.640503,267.021484 244.104553,270.919189 
	C244.694382,275.873383 245.271027,280.860229 246.365616,285.717560 
	C250.039337,302.020111 257.340942,316.330444 269.823273,327.798767 
	C291.353973,347.580353 337.744659,355.574982 365.190887,332.629059 
	C372.228149,326.745697 375.528412,328.377197 378.148956,337.346130 
	C378.289093,337.825775 378.292206,338.404816 378.574097,338.772919 
	C379.505920,339.989685 380.536438,341.130920 381.529022,342.301147 
	C382.342651,340.842316 383.780701,339.416046 383.858765,337.918854 
	C384.153290,332.269348 383.923981,326.595123 384.040283,320.933197 
	C384.306854,307.955261 384.571960,294.975952 385.028320,282.003937 
	C385.188873,277.439758 387.377808,274.242126 392.166382,272.918823 
	C393.754303,272.480011 394.963684,270.671356 396.346130,269.488983 
	C394.517792,268.750153 392.697144,267.392517 390.859924,267.369751 
	C375.222656,267.175842 359.582306,267.224579 343.942902,267.200623 
	C342.777344,267.198822 341.493744,266.885590 340.475159,267.271606 
	C339.104034,267.791260 337.937225,268.849976 336.682709,269.677307 
	C337.719208,270.593353 338.616516,271.899963 339.825928,272.331024 
	C341.508942,272.930878 343.424835,272.882294 345.242554,273.098694 
	C354.906677,274.249329 359.331390,277.889160 360.138916,287.444122 
	C361.020111,297.870422 360.675751,308.396851 360.986572,318.876068 
	C361.195557,325.922455 358.019287,330.847443 352.225555,334.603943 
	C342.118805,341.157013 330.914978,341.830353 319.482086,340.878143 
	C303.027863,339.507660 289.919525,332.235870 281.206177,317.888184 
	C274.306000,306.526154 271.637634,293.851410 269.976318,280.876617 
	C269.367401,276.120972 268.600189,271.385559 267.335510,266.050812 
M127.010674,213.500000 
	C127.010643,216.996292 127.000465,220.492615 127.012344,223.988876 
	C127.064171,239.251938 125.690247,237.965607 140.999374,237.983658 
	C150.123581,237.994415 150.769714,237.337723 150.819763,227.971786 
	C150.894501,213.987076 150.729370,199.998169 151.022476,186.018509 
	C151.232498,176.001770 155.278351,172.235229 165.171982,171.918625 
	C167.500595,171.844116 169.833618,171.858627 172.163818,171.890488 
	C193.717972,172.185196 205.887695,182.216721 208.755371,203.625610 
	C210.020432,213.069992 209.223923,222.830933 208.879333,232.430786 
	C208.739731,236.320374 209.660858,238.091461 213.658127,237.984985 
	C217.983795,237.869797 222.356079,238.284363 226.623932,237.770020 
	C228.564224,237.536209 231.326874,236.027893 231.969315,234.405731 
	C237.063553,221.542740 236.907364,198.668869 224.486176,184.873154 
	C213.331329,172.483948 199.023209,167.478806 183.028107,167.110992 
	C162.560577,166.640350 142.074020,167.011047 121.595734,166.979599 
	C118.102264,166.974228 114.601059,166.594696 111.120140,166.753799 
	C109.898560,166.809647 108.727158,167.963242 107.532837,168.615570 
	C108.585884,169.667480 109.569901,170.806107 110.726891,171.727493 
	C111.172935,172.082687 112.012741,171.939468 112.672005,172.031525 
	C123.544792,173.549454 126.683334,176.947327 126.933418,188.026581 
	C127.117470,196.180817 126.996033,204.341949 127.010674,213.500000 
M269.717621,234.063110 
	C271.519257,220.252441 274.753967,206.884888 281.572632,194.566422 
	C292.241180,175.292831 308.071411,165.890472 330.483032,167.992050 
	C351.306152,169.944717 368.796661,183.869675 374.472809,203.945862 
	C375.966339,209.228500 376.753815,214.711380 378.263275,219.988510 
	C378.663452,221.387543 380.540924,222.363998 381.740082,223.534485 
	C382.762939,222.233765 384.639709,220.958206 384.678864,219.628494 
	C385.164642,203.145889 385.440247,186.655762 385.549683,170.166122 
	C385.557526,168.980164 383.849091,167.782822 382.938629,166.590805 
	C381.777802,167.578781 380.127594,168.348053 379.566284,169.603973 
	C378.632660,171.692978 378.574615,174.154022 377.831757,176.351517 
	C376.273773,180.960159 373.607269,181.882812 369.353790,179.408691 
	C367.917267,178.573135 366.578857,177.564087 365.221619,176.597809 
	C351.150940,166.580429 335.716034,161.832520 318.246155,162.938644 
	C277.170105,165.539413 251.643600,197.587479 245.736877,233.303741 
	C245.521057,234.608810 247.358398,237.491287 248.376892,237.558853 
	C254.340149,237.954544 260.351288,237.872391 266.328857,237.586655 
	C267.426788,237.534164 268.444641,235.806717 269.717621,234.063110 
M169.444870,271.920746 
	C180.491379,271.707733 191.344833,270.525848 201.533066,265.713440 
	C199.651611,264.995575 197.854843,264.945251 196.061630,265.003754 
	C184.419510,265.383575 172.779205,266.051514 161.136230,266.097443 
	C152.168213,266.132782 143.200348,265.247040 134.226334,265.052917 
	C127.804794,264.913971 127.058464,265.796326 127.033646,272.285889 
	C126.971207,288.612640 127.125336,304.941528 126.914322,321.265961 
	C126.772018,332.274170 123.939903,335.214172 113.298729,337.419098 
	C111.309402,337.831299 109.574715,339.472351 107.722511,340.546326 
	C109.695770,341.333862 111.614258,342.356689 113.659988,342.832886 
	C115.237206,343.200012 116.974197,342.869141 118.640167,342.868317 
	C132.449310,342.861664 146.258453,342.854919 160.067596,342.859619 
	C163.399536,342.860748 166.755249,343.149017 170.053711,342.828522 
	C171.780319,342.660767 173.406403,341.458466 175.077866,340.723389 
	C173.609009,339.710724 172.267380,338.275391 170.641052,337.785767 
	C168.280838,337.075226 165.702805,337.121735 163.239182,336.715088 
	C155.111343,335.373352 151.288666,331.622314 151.104782,323.398041 
	C150.762283,308.078827 150.937668,292.748108 150.893570,277.422180 
	C150.882812,273.687164 152.779999,271.952881 156.466614,271.970673 
	C160.464676,271.989990 164.463058,271.942078 169.444870,271.920746 
M129.777313,247.317871 
	C129.107666,247.301010 128.438019,247.284134 127.768364,247.267273 
	C128.875000,250.517258 129.981644,253.767258 131.516953,258.276123 
	C133.451981,254.885880 134.504898,253.041122 135.763397,250.836166 
	C137.078232,253.312103 138.030746,255.105820 138.983276,256.899506 
	C139.431091,256.902771 139.878906,256.906036 140.326721,256.909332 
	C141.526474,253.459930 142.726227,250.010559 143.925980,246.561172 
	C143.501923,246.382416 143.077866,246.203674 142.653809,246.024918 
	C141.641708,247.873322 140.629608,249.721741 139.334976,252.086151 
	C138.165665,249.628021 137.282410,247.771240 135.911438,244.889206 
	C134.380127,247.476715 133.307571,249.289062 131.878464,251.703873 
	C131.065933,250.070282 130.517639,248.967941 129.777313,247.317871 
M457.593872,254.118286 
	C459.073425,254.839081 460.552979,255.559860 461.850220,256.191833 
	C462.314392,253.835114 463.023987,251.651947 463.114777,249.443344 
	C463.255585,246.016449 456.447784,243.346741 454.978149,246.286133 
	C453.608551,249.025467 454.150757,252.720657 453.851410,255.995087 
	C454.334015,256.175262 454.816589,256.355438 455.299194,256.535614 
	C455.844269,255.792358 456.389374,255.049103 457.593872,254.118286 
M362.284180,255.254654 
	C362.392212,254.145309 362.648499,253.026016 362.574890,251.928864 
	C362.452087,250.098282 362.750061,247.415298 361.722534,246.666046 
	C360.244202,245.588089 357.588074,245.375504 355.731354,245.881805 
	C354.798920,246.136063 354.268616,248.753952 354.015106,250.374680 
	C353.726166,252.222015 353.948303,254.149292 353.948303,256.041809 
	C357.171539,251.242706 359.786865,256.115234 362.284180,255.254654 
M312.992859,246.538361 
	C312.119141,247.618301 311.245392,248.698242 310.170319,250.027069 
	C308.410858,248.520767 306.866791,247.198898 304.422913,245.106659 
	C304.422913,249.397308 304.422913,252.644806 304.422913,255.892288 
	C304.746735,255.912872 305.070526,255.933441 305.394348,255.954025 
	C305.732269,254.451309 306.070160,252.948593 306.408051,251.445877 
	C306.940857,251.045868 307.473633,250.645874 308.006409,250.245865 
	C309.366974,252.591812 310.727539,254.937744 312.088104,257.283691 
	C312.565491,256.971680 313.042908,256.659668 313.520294,256.347626 
	C313.520294,253.136826 313.520294,249.926025 312.992859,246.538361 
M35.103989,254.264572 
	C40.610661,252.324875 42.601479,248.704849 39.212925,246.674942 
	C37.431175,245.607590 34.486797,246.481033 32.067410,246.478104 
	C32.103905,249.631882 32.140400,252.785660 32.176899,255.939438 
	C32.949753,255.502457 33.722610,255.065475 35.103989,254.264572 
M211.066238,246.702454 
	C210.842972,248.982742 210.122452,251.368484 210.575668,253.505295 
	C210.865585,254.872086 213.020813,256.943420 214.108490,256.810242 
	C216.326355,256.538635 219.165405,255.500397 220.273590,253.810669 
	C221.199600,252.398712 220.767807,248.390533 219.620255,247.690201 
	C217.434952,246.356583 214.309448,246.563599 211.066238,246.702454 
M380.850220,255.425537 
	C383.520905,255.425537 386.191589,255.425537 389.361267,255.425537 
	C387.858551,252.240875 386.264893,248.863602 384.671265,245.486328 
	C384.094116,245.509918 383.516968,245.533508 382.939789,245.557098 
	C381.539612,248.773972 380.139404,251.990829 378.739227,255.207703 
	C379.267517,255.415192 379.795837,255.622696 380.850220,255.425537 
M283.797241,247.562210 
	C284.788055,247.199509 285.778870,246.836792 286.769714,246.474075 
	C286.671356,246.012573 286.572998,245.551071 286.474640,245.089569 
	C284.463318,245.602478 281.006836,245.698334 280.715576,246.707611 
	C279.889740,249.569534 279.733917,253.006790 280.634277,255.790573 
	C280.978302,256.854340 284.906464,256.758911 287.201294,257.191742 
	C287.283386,256.722290 287.365479,256.252838 287.447601,255.783386 
	C285.742279,255.218582 284.036957,254.653793 281.157074,253.699982 
	C283.742767,252.535110 285.179749,251.887741 286.242004,251.409180 
	C285.145264,250.123871 284.202789,249.019348 283.797241,247.562210 
M63.349354,249.187454 
	C62.498211,247.967041 61.647064,246.746643 60.041862,244.445038 
	C58.041080,249.039505 56.591175,252.368973 55.263214,255.418427 
	C59.002098,255.418427 62.193008,255.418427 65.912964,255.418427 
	C65.205605,253.664413 64.431259,251.744293 63.349354,249.187454 
M427.098694,253.520828 
	C427.996063,254.449936 428.914429,256.179901 429.786896,256.157074 
	C432.341278,256.090210 435.628662,256.096130 437.178711,254.585526 
	C438.381042,253.413803 438.366547,249.008850 437.156189,247.841080 
	C435.592865,246.332779 431.883057,245.615265 429.882965,246.446701 
	C428.279083,247.113388 427.845764,250.596207 427.098694,253.520828 
M163.613281,256.984497 
	C165.663254,255.602356 168.363129,254.612885 169.523148,252.692993 
	C170.236404,251.512527 169.176544,248.150833 167.860443,247.143539 
	C166.320709,245.965073 163.371338,245.530441 161.529953,246.180161 
	C159.966095,246.731964 158.411255,249.160324 158.089844,250.977249 
	C157.511993,254.243851 159.703491,256.164093 163.613281,256.984497 
M187.765884,245.396439 
	C182.635666,248.225189 185.931229,252.384262 185.531708,254.870117 
	C188.585144,255.089615 190.946228,255.259354 193.267319,255.426224 
	C194.155228,246.064636 194.155228,246.064636 187.765884,245.396439 
M84.642616,245.460587 
	C75.405434,250.019241 86.135834,251.077286 86.345207,254.471848 
	C84.526703,254.471848 82.919083,254.471848 81.311462,254.471848 
	C81.254280,255.002640 81.197105,255.533417 81.139923,256.064209 
	C83.160042,256.235779 85.793022,257.309509 87.095543,256.424683 
	C93.144257,252.315781 85.870354,251.196320 84.691536,248.375671 
	C86.051643,247.884186 87.163864,247.482269 89.256828,246.725952 
	C87.314125,246.069580 86.321167,245.734100 84.642616,245.460587 
M110.310051,250.567902 
	C109.533119,249.947189 108.756187,249.326477 107.369759,248.218811 
	C109.420517,247.778244 110.571838,247.530899 111.723152,247.283554 
	C111.668488,246.760086 111.613823,246.236603 111.559158,245.713120 
	C109.611137,245.989807 106.788857,245.549149 105.869400,246.669785 
	C102.262535,251.065750 108.942856,251.149902 109.760010,254.351135 
	C107.994041,254.552094 106.527992,254.718933 104.134827,254.991272 
	C107.151611,257.378845 109.681885,257.829010 111.703293,255.637650 
	C112.373253,254.911392 111.230186,252.512680 110.310051,250.567902 
M263.533630,254.650970 
	C263.471527,253.893723 263.409424,253.136475 263.415039,253.204865 
	C261.160187,253.624222 259.191132,254.356689 257.329407,254.145065 
	C256.644897,254.067245 255.464981,250.892227 255.791229,250.610031 
	C257.660095,248.993637 259.914215,247.822678 262.328247,246.319519 
	C259.903473,244.813721 257.226440,244.942261 254.853729,247.238724 
	C252.480850,249.535309 252.285583,252.420746 254.514862,254.831100 
	C257.106964,257.633759 260.203552,258.072968 263.533630,254.650970 
M334.992737,247.292160 
	C335.743378,246.954208 336.494019,246.616257 337.244629,246.278305 
	C337.092896,245.807098 336.941132,245.335876 336.789398,244.864655 
	C334.625885,245.516998 330.958527,245.717804 330.599945,246.912094 
	C329.753387,249.731400 329.918182,253.216797 330.878418,256.020233 
	C331.215912,257.005554 335.066528,256.787567 337.312988,257.118988 
	C337.389709,256.694855 337.466431,256.270691 337.543182,255.846542 
	C335.803558,255.237259 334.063965,254.627991 330.909332,253.523117 
	C333.869690,252.435120 335.258850,251.924576 336.918640,251.314575 
	C333.001587,249.407196 333.001587,249.407196 334.992737,247.292160 
M294.120239,131.198120 
	C294.793762,133.463837 295.467316,135.729553 296.140839,137.995270 
	C296.451416,137.938828 296.761993,137.882385 297.072571,137.825943 
	C297.420105,136.593689 297.767670,135.361420 298.151093,134.001938 
	C299.785645,135.043915 301.055237,135.853226 302.822479,136.979767 
	C301.967957,133.781250 301.643005,131.166504 300.517944,128.959656 
	C299.976715,127.898033 297.762360,126.901581 296.605957,127.169884 
	C295.517578,127.422409 294.823944,129.376236 294.120239,131.198120 
M139.048584,375.406769 
	C138.157242,375.358246 136.509613,375.163910 136.486694,375.282806 
	C136.066666,377.461334 135.841354,379.677399 135.574753,381.885498 
	C135.808746,381.933777 136.042755,381.982086 136.276749,382.030365 
	C136.759689,380.936188 137.242615,379.842010 137.869324,378.422058 
	C139.418533,380.104828 140.663071,381.456665 142.773071,383.748566 
	C143.264374,379.870605 143.604385,377.186890 143.801804,375.628723 
	C141.898331,375.720581 140.628403,375.781860 139.048584,375.406769 
M405.829742,247.584961 
	C406.487122,250.373825 407.144470,253.162674 408.017914,256.868195 
	C409.065369,252.501541 409.857361,249.199890 410.699524,245.689102 
	C409.177521,245.959305 406.542480,243.244598 405.829742,247.584961 
M337.296783,128.824249 
	C335.803040,128.434677 334.309296,128.045105 333.011780,127.706703 
	C333.011780,131.278214 333.011780,134.269623 333.011780,137.244843 
	C334.836823,134.862457 336.680237,132.456039 338.711121,129.804962 
	C338.796600,129.876541 338.309021,129.468323 337.296783,128.824249 
M164.723648,373.431122 
	C163.936890,372.536346 163.150146,371.641571 162.363388,370.746796 
	C162.039200,371.029327 161.715012,371.311859 161.390823,371.594391 
	C162.647415,374.511292 163.904007,377.428192 165.160599,380.345123 
	C165.640350,380.163818 166.120117,379.982544 166.599884,379.801270 
	C166.088196,377.834595 165.576508,375.867920 164.723648,373.431122 
M283.027710,134.852829 
	C284.055695,137.045258 285.083679,139.237701 286.111633,141.430130 
	C286.487274,141.252518 286.862915,141.074890 287.238525,140.897263 
	C286.343445,137.798920 285.448334,134.700577 284.362335,130.941376 
	C283.827576,132.104782 283.340363,133.164780 283.027710,134.852829 
M155.464355,381.070465 
	C157.781418,380.654602 157.781418,380.654602 155.445831,377.583099 
	C155.380020,378.921448 155.337448,379.787262 155.464355,381.070465 
M279.359802,134.592697 
	C279.425690,134.476349 279.491608,134.360016 279.557526,134.243683 
	C279.474548,134.309052 279.391602,134.374435 279.359802,134.592697 
M168.478760,373.517944 
	C168.478760,373.517944 168.502090,373.523804 168.478760,373.517944 
z"/>
<path fill="#0B2547" opacity="1.000000" stroke="none" 
	d="
M267.620331,266.345886 
	C268.600189,271.385559 269.367401,276.120972 269.976318,280.876617 
	C271.637634,293.851410 274.306000,306.526154 281.206177,317.888184 
	C289.919525,332.235870 303.027863,339.507660 319.482086,340.878143 
	C330.914978,341.830353 342.118805,341.157013 352.225555,334.603943 
	C358.019287,330.847443 361.195557,325.922455 360.986572,318.876068 
	C360.675751,308.396851 361.020111,297.870422 360.138916,287.444122 
	C359.331390,277.889160 354.906677,274.249329 345.242554,273.098694 
	C343.424835,272.882294 341.508942,272.930878 339.825928,272.331024 
	C338.616516,271.899963 337.719208,270.593353 336.682709,269.677307 
	C337.937225,268.849976 339.104034,267.791260 340.475159,267.271606 
	C341.493744,266.885590 342.777344,267.198822 343.942902,267.200623 
	C359.582306,267.224579 375.222656,267.175842 390.859924,267.369751 
	C392.697144,267.392517 394.517792,268.750153 396.346130,269.488983 
	C394.963684,270.671356 393.754303,272.480011 392.166382,272.918823 
	C387.377808,274.242126 385.188873,277.439758 385.028320,282.003937 
	C384.571960,294.975952 384.306854,307.955261 384.040283,320.933197 
	C383.923981,326.595123 384.153290,332.269348 383.858765,337.918854 
	C383.780701,339.416046 382.342651,340.842316 381.529053,342.301147 
	C380.536438,341.130920 379.505920,339.989685 378.574097,338.772919 
	C378.292206,338.404816 378.289093,337.825775 378.148956,337.346130 
	C375.528412,328.377197 372.228149,326.745697 365.190887,332.629059 
	C337.744659,355.574982 291.353973,347.580353 269.823273,327.798767 
	C257.340942,316.330444 250.039337,302.020111 246.365616,285.717560 
	C245.271027,280.860229 244.694382,275.873383 244.104553,270.919189 
	C243.640503,267.021484 245.474792,264.847992 249.551590,265.047394 
	C255.481735,265.337402 261.407745,265.712189 267.620331,266.345886 
z"/>
<path fill="#0B2547" opacity="1.000000" stroke="none" 
	d="
M127.010704,213.000000 
	C126.996033,204.341949 127.117470,196.180817 126.933418,188.026581 
	C126.683334,176.947327 123.544792,173.549454 112.672005,172.031525 
	C112.012741,171.939468 111.172935,172.082687 110.726891,171.727493 
	C109.569901,170.806107 108.585884,169.667480 107.532837,168.615570 
	C108.727158,167.963242 109.898560,166.809647 111.120140,166.753799 
	C114.601059,166.594696 118.102264,166.974228 121.595734,166.979599 
	C142.074020,167.011047 162.560577,166.640350 183.028107,167.110992 
	C199.023209,167.478806 213.331329,172.483948 224.486176,184.873154 
	C236.907364,198.668869 237.063553,221.542740 231.969315,234.405731 
	C231.326874,236.027893 228.564224,237.536209 226.623932,237.770020 
	C222.356079,238.284363 217.983795,237.869797 213.658127,237.984985 
	C209.660858,238.091461 208.739731,236.320374 208.879333,232.430786 
	C209.223923,222.830933 210.020432,213.069992 208.755371,203.625610 
	C205.887695,182.216721 193.717972,172.185196 172.163818,171.890488 
	C169.833618,171.858627 167.500595,171.844116 165.171982,171.918625 
	C155.278351,172.235229 151.232498,176.001770 151.022476,186.018509 
	C150.729370,199.998169 150.894501,213.987076 150.819763,227.971786 
	C150.769714,237.337723 150.123581,237.994415 140.999374,237.983658 
	C125.690247,237.965607 127.064171,239.251938 127.012344,223.988876 
	C127.000465,220.492615 127.010643,216.996292 127.010704,213.000000 
z"/>
<path fill="#0B2648" opacity="1.000000" stroke="none" 
	d="
M269.608521,234.457764 
	C268.444641,235.806717 267.426788,237.534164 266.328857,237.586655 
	C260.351288,237.872391 254.340149,237.954544 248.376892,237.558853 
	C247.358398,237.491287 245.521057,234.608810 245.736877,233.303741 
	C251.643600,197.587479 277.170105,165.539413 318.246155,162.938644 
	C335.716034,161.832520 351.150940,166.580429 365.221619,176.597809 
	C366.578857,177.564087 367.917267,178.573135 369.353790,179.408691 
	C373.607269,181.882812 376.273773,180.960159 377.831757,176.351517 
	C378.574615,174.154022 378.632660,171.692978 379.566284,169.603973 
	C380.127594,168.348053 381.777802,167.578781 382.938629,166.590790 
	C383.849091,167.782822 385.557526,168.980164 385.549683,170.166122 
	C385.440247,186.655762 385.164642,203.145889 384.678864,219.628494 
	C384.639709,220.958206 382.762939,222.233765 381.740082,223.534485 
	C380.540924,222.363998 378.663452,221.387543 378.263275,219.988510 
	C376.753815,214.711380 375.966339,209.228500 374.472809,203.945862 
	C368.796661,183.869675 351.306152,169.944717 330.483032,167.992050 
	C308.071411,165.890472 292.241180,175.292831 281.572632,194.566422 
	C274.753967,206.884888 271.519257,220.252441 269.608521,234.457764 
z"/>
<path fill="#0B2547" opacity="1.000000" stroke="none" 
	d="
M168.953094,271.922119 
	C164.463058,271.942078 160.464676,271.989990 156.466614,271.970673 
	C152.779999,271.952881 150.882812,273.687164 150.893570,277.422180 
	C150.937668,292.748108 150.762283,308.078827 151.104782,323.398041 
	C151.288666,331.622314 155.111343,335.373352 163.239182,336.715088 
	C165.702805,337.121735 168.280838,337.075226 170.641052,337.785767 
	C172.267380,338.275391 173.609009,339.710724 175.077881,340.723389 
	C173.406403,341.458466 171.780319,342.660767 170.053711,342.828522 
	C166.755249,343.149017 163.399536,342.860748 160.067596,342.859619 
	C146.258453,342.854919 132.449310,342.861664 118.640167,342.868317 
	C116.974197,342.869141 115.237206,343.200012 113.659988,342.832886 
	C111.614258,342.356689 109.695770,341.333862 107.722511,340.546326 
	C109.574715,339.472351 111.309402,337.831299 113.298729,337.419098 
	C123.939903,335.214172 126.772018,332.274170 126.914322,321.265961 
	C127.125336,304.941528 126.971207,288.612640 127.033646,272.285889 
	C127.058464,265.796326 127.804794,264.913971 134.226334,265.052917 
	C143.200348,265.247040 152.168213,266.132782 161.136230,266.097443 
	C172.779205,266.051514 184.419510,265.383575 196.061630,265.003754 
	C197.854843,264.945251 199.651611,264.995575 201.533066,265.713440 
	C191.344833,270.525848 180.491379,271.707733 168.953094,271.922119 
z"/>
<path fill="#050B12" opacity="1.000000" stroke="none" 
	d="
M129.873322,247.591736 
	C130.517639,248.967941 131.065933,250.070282 131.878464,251.703873 
	C133.307571,249.289062 134.380127,247.476715 135.911438,244.889206 
	C137.282410,247.771240 138.165665,249.628021 139.334976,252.086151 
	C140.629608,249.721741 141.641708,247.873322 142.653809,246.024918 
	C143.077866,246.203674 143.501923,246.382416 143.925980,246.561172 
	C142.726227,250.010559 141.526474,253.459930 140.326721,256.909332 
	C139.878906,256.906036 139.431091,256.902771 138.983276,256.899506 
	C138.030746,255.105820 137.078232,253.312103 135.763397,250.836166 
	C134.504898,253.041122 133.451981,254.885880 131.516953,258.276123 
	C129.981644,253.767258 128.875000,250.517258 127.768364,247.267273 
	C128.438019,247.284134 129.107666,247.301010 129.873322,247.591736 
z"/>
<path fill="#04080E" opacity="1.000000" stroke="none" 
	d="
M457.264160,254.212067 
	C456.389374,255.049103 455.844269,255.792358 455.299194,256.535614 
	C454.816589,256.355438 454.334015,256.175262 453.851410,255.995087 
	C454.150757,252.720657 453.608551,249.025467 454.978149,246.286133 
	C456.447784,243.346741 463.255585,246.016449 463.114777,249.443344 
	C463.023987,251.651947 462.314392,253.835114 461.850220,256.191833 
	C460.552979,255.559860 459.073425,254.839081 457.264160,254.212067 
z"/>
<path fill="#04080E" opacity="1.000000" stroke="none" 
	d="
M362.283478,255.552795 
	C359.786865,256.115234 357.171539,251.242706 353.948303,256.041809 
	C353.948303,254.149292 353.726166,252.222015 354.015106,250.374680 
	C354.268616,248.753952 354.798920,246.136063 355.731354,245.881805 
	C357.588074,245.375504 360.244202,245.588089 361.722534,246.666046 
	C362.750061,247.415298 362.452087,250.098282 362.574890,251.928864 
	C362.648499,253.026016 362.392212,254.145309 362.283478,255.552795 
z"/>
<path fill="#04080E" opacity="1.000000" stroke="none" 
	d="
M313.256592,246.626801 
	C313.520294,249.926025 313.520294,253.136826 313.520294,256.347626 
	C313.042908,256.659668 312.565491,256.971680 312.088104,257.283691 
	C310.727539,254.937744 309.366974,252.591812 308.006409,250.245865 
	C307.473633,250.645874 306.940857,251.045868 306.408051,251.445877 
	C306.070160,252.948593 305.732269,254.451309 305.394348,255.954025 
	C305.070526,255.933441 304.746735,255.912872 304.422913,255.892288 
	C304.422913,252.644806 304.422913,249.397308 304.422913,245.106659 
	C306.866791,247.198898 308.410858,248.520767 310.170319,250.027069 
	C311.245392,248.698242 312.119141,247.618301 313.256592,246.626801 
z"/>
<path fill="#0A131F" opacity="1.000000" stroke="none" 
	d="
M34.799728,254.446533 
	C33.722610,255.065475 32.949753,255.502457 32.176899,255.939438 
	C32.140400,252.785660 32.103905,249.631882 32.067410,246.478104 
	C34.486797,246.481033 37.431175,245.607590 39.212925,246.674942 
	C42.601479,248.704849 40.610661,252.324875 34.799728,254.446533 
z"/>
<path fill="#050B12" opacity="1.000000" stroke="none" 
	d="
M211.320282,246.416687 
	C214.309448,246.563599 217.434952,246.356583 219.620255,247.690201 
	C220.767807,248.390533 221.199600,252.398712 220.273590,253.810669 
	C219.165405,255.500397 216.326355,256.538635 214.108490,256.810242 
	C213.020813,256.943420 210.865585,254.872086 210.575668,253.505295 
	C210.122452,251.368484 210.842972,248.982742 211.320282,246.416687 
M218.829086,250.704132 
	C217.402664,249.667618 215.976227,248.631119 214.549805,247.594604 
	C213.956146,248.820847 212.872833,250.061539 212.908432,251.269226 
	C212.943069,252.444122 214.123947,253.585236 214.801529,254.741180 
	C216.150513,253.646164 217.499512,252.551147 218.829086,250.704132 
z"/>
<path fill="#04080E" opacity="1.000000" stroke="none" 
	d="
M380.587158,255.627869 
	C379.795837,255.622696 379.267517,255.415192 378.739197,255.207703 
	C380.139404,251.990829 381.539612,248.773972 382.939789,245.557098 
	C383.516968,245.533508 384.094116,245.509918 384.671265,245.486328 
	C386.264893,248.863602 387.858551,252.240875 389.361267,255.425537 
	C386.191589,255.425537 383.520905,255.425537 380.587158,255.627869 
z"/>
<path fill="#04080E" opacity="1.000000" stroke="none" 
	d="
M283.528778,247.738525 
	C284.202789,249.019348 285.145264,250.123871 286.242004,251.409180 
	C285.179749,251.887741 283.742767,252.535110 281.157074,253.699982 
	C284.036957,254.653793 285.742279,255.218582 287.447601,255.783386 
	C287.365479,256.252838 287.283386,256.722290 287.201294,257.191742 
	C284.906464,256.758911 280.978302,256.854340 280.634277,255.790573 
	C279.733917,253.006790 279.889740,249.569534 280.715576,246.707611 
	C281.006836,245.698334 284.463318,245.602478 286.474640,245.089569 
	C286.572998,245.551071 286.671356,246.012573 286.769714,246.474075 
	C285.778870,246.836792 284.788055,247.199509 283.528778,247.738525 
z"/>
<path fill="#04080E" opacity="1.000000" stroke="none" 
	d="
M63.503128,249.505814 
	C64.431259,251.744293 65.205605,253.664413 65.912964,255.418427 
	C62.193008,255.418427 59.002098,255.418427 55.263214,255.418427 
	C56.591175,252.368973 58.041080,249.039505 60.041862,244.445038 
	C61.647064,246.746643 62.498211,247.967041 63.503128,249.505814 
z"/>
<path fill="#04080E" opacity="1.000000" stroke="none" 
	d="
M426.995850,253.175049 
	C427.845764,250.596207 428.279083,247.113388 429.882965,246.446701 
	C431.883057,245.615265 435.592865,246.332779 437.156189,247.841080 
	C438.366547,249.008850 438.381042,253.413803 437.178711,254.585526 
	C435.628662,256.096130 432.341278,256.090210 429.786896,256.157074 
	C428.914429,256.179901 427.996063,254.449936 426.995850,253.175049 
M429.425903,249.305496 
	C430.067108,251.105118 430.406555,253.141937 431.525757,254.565842 
	C431.880646,255.017319 434.915039,254.266647 435.628326,253.276947 
	C436.335358,252.296005 436.060181,249.180222 435.520844,248.992020 
	C433.817810,248.397690 431.789124,248.736557 429.425903,249.305496 
z"/>
<path fill="#04080E" opacity="1.000000" stroke="none" 
	d="
M163.225174,256.955048 
	C159.703491,256.164093 157.511993,254.243851 158.089844,250.977249 
	C158.411255,249.160324 159.966095,246.731964 161.529953,246.180161 
	C163.371338,245.530441 166.320709,245.965073 167.860443,247.143539 
	C169.176544,248.150833 170.236404,251.512527 169.523148,252.692993 
	C168.363129,254.612885 165.663254,255.602356 163.225174,256.955048 
M167.270065,249.380295 
	C165.429749,248.970383 163.535797,248.143829 161.777374,248.370117 
	C161.137421,248.452484 160.041229,251.479568 160.546860,252.383865 
	C161.227814,253.601746 163.939270,255.074219 164.568268,254.648438 
	C165.975845,253.695602 166.634583,251.636490 167.270065,249.380295 
z"/>
<path fill="#050B12" opacity="1.000000" stroke="none" 
	d="
M188.160721,245.359909 
	C194.155228,246.064636 194.155228,246.064636 193.267319,255.426224 
	C190.946228,255.259354 188.585144,255.089615 185.531708,254.870117 
	C185.931229,252.384262 182.635666,248.225189 188.160721,245.359909 
M188.281845,251.058685 
	C189.549667,250.584167 190.817490,250.109650 192.085312,249.635132 
	C191.371796,248.893982 190.658264,248.152817 189.944748,247.411667 
	C189.245712,248.477798 188.546677,249.543930 188.281845,251.058685 
z"/>
<path fill="#04080E" opacity="1.000000" stroke="none" 
	d="
M84.985413,245.429596 
	C86.321167,245.734100 87.314125,246.069580 89.256828,246.725952 
	C87.163864,247.482269 86.051643,247.884186 84.691536,248.375671 
	C85.870354,251.196320 93.144257,252.315781 87.095543,256.424683 
	C85.793022,257.309509 83.160042,256.235779 81.139923,256.064209 
	C81.197105,255.533417 81.254280,255.002640 81.311462,254.471848 
	C82.919083,254.471848 84.526703,254.471848 86.345207,254.471848 
	C86.135834,251.077286 75.405434,250.019241 84.985413,245.429596 
z"/>
<path fill="#04080E" opacity="1.000000" stroke="none" 
	d="
M110.613037,250.723267 
	C111.230186,252.512680 112.373253,254.911392 111.703293,255.637650 
	C109.681885,257.829010 107.151611,257.378845 104.134827,254.991272 
	C106.527992,254.718933 107.994041,254.552094 109.760010,254.351135 
	C108.942856,251.149902 102.262535,251.065750 105.869400,246.669785 
	C106.788857,245.549149 109.611137,245.989807 111.559158,245.713120 
	C111.613823,246.236603 111.668488,246.760086 111.723152,247.283554 
	C110.571838,247.530899 109.420517,247.778244 107.369759,248.218811 
	C108.756187,249.326477 109.533119,249.947189 110.613037,250.723267 
z"/>
<path fill="#050B12" opacity="1.000000" stroke="none" 
	d="
M263.399475,254.956207 
	C260.203552,258.072968 257.106964,257.633759 254.514862,254.831100 
	C252.285583,252.420746 252.480850,249.535309 254.853729,247.238724 
	C257.226440,244.942261 259.903473,244.813721 262.328247,246.319519 
	C259.914215,247.822678 257.660095,248.993637 255.791229,250.610031 
	C255.464981,250.892227 256.644897,254.067245 257.329407,254.145065 
	C259.191132,254.356689 261.160187,253.624222 263.415039,253.204865 
	C263.409424,253.136475 263.471527,253.893723 263.399475,254.956207 
z"/>
<path fill="#04080E" opacity="1.000000" stroke="none" 
	d="
M334.684082,247.341156 
	C333.001587,249.407196 333.001587,249.407196 336.918640,251.314575 
	C335.258850,251.924576 333.869690,252.435120 330.909332,253.523117 
	C334.063965,254.627991 335.803558,255.237259 337.543182,255.846542 
	C337.466431,256.270691 337.389709,256.694855 337.312988,257.118988 
	C335.066528,256.787567 331.215912,257.005554 330.878418,256.020233 
	C329.918182,253.216797 329.753387,249.731400 330.599945,246.912094 
	C330.958527,245.717804 334.625885,245.516998 336.789398,244.864655 
	C336.941132,245.335876 337.092896,245.807098 337.244629,246.278305 
	C336.494019,246.616257 335.743378,246.954208 334.684082,247.341156 
z"/>
<path fill="#114A94" opacity="1.000000" stroke="none" 
	d="
M294.038422,130.889847 
	C294.823944,129.376236 295.517578,127.422409 296.605957,127.169884 
	C297.762360,126.901581 299.976715,127.898033 300.517944,128.959656 
	C301.643005,131.166504 301.967957,133.781250 302.822479,136.979767 
	C301.055237,135.853226 299.785645,135.043915 298.151093,134.001938 
	C297.767670,135.361420 297.420105,136.593689 297.072571,137.825943 
	C296.761993,137.882385 296.451416,137.938828 296.140839,137.995270 
	C295.467316,135.729553 294.793762,133.463837 294.038422,130.889847 
M297.970337,129.777878 
	C297.745087,129.509308 297.519836,129.240738 297.294586,128.972168 
	C297.188110,129.072372 297.081635,129.172577 296.975159,129.272797 
	C297.235321,129.507858 297.495453,129.742905 297.970337,129.777878 
z"/>
<path fill="#114A94" opacity="1.000000" stroke="none" 
	d="
M139.203522,375.624939 
	C140.628403,375.781860 141.898331,375.720581 143.801804,375.628723 
	C143.604385,377.186890 143.264374,379.870605 142.773071,383.748566 
	C140.663071,381.456665 139.418533,380.104828 137.869324,378.422058 
	C137.242615,379.842010 136.759689,380.936188 136.276749,382.030365 
	C136.042755,381.982086 135.808746,381.933777 135.574753,381.885498 
	C135.841354,379.677399 136.066666,377.461334 136.486694,375.282806 
	C136.509613,375.163910 138.157242,375.358246 139.203522,375.624939 
z"/>
<path fill="#04080E" opacity="1.000000" stroke="none" 
	d="
M405.581726,247.421082 
	C406.542480,243.244598 409.177521,245.959305 410.699524,245.689102 
	C409.857361,249.199890 409.065369,252.501541 408.017914,256.868195 
	C407.144470,253.162674 406.487122,250.373825 405.581726,247.421082 
z"/>
<path fill="#114A94" opacity="1.000000" stroke="none" 
	d="
M337.559143,128.942169 
	C338.309021,129.468323 338.796600,129.876541 338.711121,129.804962 
	C336.680237,132.456039 334.836823,134.862457 333.011780,137.244843 
	C333.011780,134.269623 333.011780,131.278214 333.011780,127.706703 
	C334.309296,128.045105 335.803040,128.434677 337.559143,128.942169 
z"/>
<path fill="#114A94" opacity="1.000000" stroke="none" 
	d="
M164.894226,373.666199 
	C165.576508,375.867920 166.088196,377.834595 166.599884,379.801270 
	C166.120117,379.982544 165.640350,380.163818 165.160599,380.345123 
	C163.904007,377.428192 162.647415,374.511292 161.390823,371.594391 
	C161.715012,371.311859 162.039200,371.029327 162.363388,370.746796 
	C163.150146,371.641571 163.936890,372.536346 164.894226,373.666199 
z"/>
<path fill="#114A94" opacity="1.000000" stroke="none" 
	d="
M282.940430,134.538788 
	C283.340363,133.164780 283.827576,132.104782 284.362335,130.941376 
	C285.448334,134.700577 286.343445,137.798920 287.238525,140.897263 
	C286.862915,141.074890 286.487274,141.252518 286.111633,141.430130 
	C285.083679,139.237701 284.055695,137.045258 282.940430,134.538788 
z"/>
<path fill="#114A94" opacity="1.000000" stroke="none" 
	d="
M155.379608,380.861786 
	C155.337448,379.787262 155.380020,378.921448 155.445831,377.583099 
	C157.781418,380.654602 157.781418,380.654602 155.379608,380.861786 
z"/>
<path fill="#114A94" opacity="1.000000" stroke="none" 
	d="
M150.938568,382.076324 
	C150.185898,379.935608 149.433212,377.794891 148.680527,375.654175 
	C149.318512,375.498749 149.956482,375.343323 150.594467,375.187866 
	C150.774704,377.152832 150.954956,379.117767 151.086243,381.532135 
	C151.037277,381.981567 150.938568,382.076324 150.938568,382.076324 
z"/>
<path fill="#114A94" opacity="1.000000" stroke="none" 
	d="
M279.334229,134.516251 
	C279.391602,134.374435 279.474548,134.309052 279.557526,134.243683 
	C279.491608,134.360016 279.425690,134.476349 279.334229,134.516251 
z"/>
<path fill="#114A94" opacity="1.000000" stroke="none" 
	d="
M168.490417,373.520874 
	C168.502090,373.523804 168.478760,373.517944 168.490417,373.520874 
z"/>
<path fill="#114A94" opacity="1.000000" stroke="none" 
	d="
M151.086334,381.933868 
	C151.135376,381.886169 151.011383,382.109924 150.974976,382.093140 
	C150.938568,382.076324 151.037277,381.981567 151.086334,381.933868 
z"/>
<path fill="#1F3C62" opacity="1.000000" stroke="none" 
	d="
M218.838806,251.080139 
	C217.499512,252.551147 216.150513,253.646164 214.801529,254.741180 
	C214.123947,253.585236 212.943069,252.444122 212.908432,251.269226 
	C212.872833,250.061539 213.956146,248.820847 214.549805,247.594604 
	C215.976227,248.631119 217.402664,249.667618 218.838806,251.080139 
z"/>
<path fill="#1F3C62" opacity="1.000000" stroke="none" 
	d="
M429.656158,249.009918 
	C431.789124,248.736557 433.817810,248.397690 435.520844,248.992020 
	C436.060181,249.180222 436.335358,252.296005 435.628326,253.276947 
	C434.915039,254.266647 431.880646,255.017319 431.525757,254.565842 
	C430.406555,253.141937 430.067108,251.105118 429.656158,249.009918 
z"/>
<path fill="#1F3C62" opacity="1.000000" stroke="none" 
	d="
M167.434174,249.704132 
	C166.634583,251.636490 165.975845,253.695602 164.568268,254.648438 
	C163.939270,255.074219 161.227814,253.601746 160.546860,252.383865 
	C160.041229,251.479568 161.137421,248.452484 161.777374,248.370117 
	C163.535797,248.143829 165.429749,248.970383 167.434174,249.704132 
z"/>
<path fill="#1F3C62" opacity="1.000000" stroke="none" 
	d="
M188.064743,250.834381 
	C188.546677,249.543930 189.245712,248.477798 189.944748,247.411667 
	C190.658264,248.152817 191.371796,248.893982 192.085312,249.635132 
	C190.817490,250.109650 189.549667,250.584167 188.064743,250.834381 
z"/>
<path fill="#213F66" opacity="1.000000" stroke="none" 
	d="
M297.862976,129.877930 
	C297.495453,129.742905 297.235321,129.507858 296.975159,129.272797 
	C297.081635,129.172577 297.188110,129.072372 297.294586,128.972168 
	C297.519836,129.240738 297.745087,129.509308 297.862976,129.877930 
z"/>
</svg>